<?xml version="1.0" encoding="utf-8"?>
<svg version="1.1" xmlns:xlink="http://www.w3.org/1999/xlink" width="12px" height="12px" viewBox="636 814.5  12 12" xmlns="http://www.w3.org/2000/svg">
  <path d="M 642 814.5  C 645.36 814.5  648 817.14  648 820.5  C 648 823.86  645.36 826.5  642 826.5  C 638.64 826.5  636 823.86  636 820.5  C 636 817.14  638.64 814.5  642 814.5  Z " fill-rule="nonzero" fill="#ffffff" stroke="none" />
  <path d="M 642 815  C 645.08 815  647.5 817.42  647.5 820.5  C 647.5 823.58  645.08 826  642 826  C 638.92 826  636.5 823.58  636.5 820.5  C 636.5 817.42  638.92 815  642 815  Z " stroke-width="1" stroke="#797979" fill="none" />
  <path d="M 642 823.5  C 640.32 823.5  639 822.18  639 820.5  C 639 818.82  640.32 817.5  642 817.5  C 643.68 817.5  645 818.82  645 820.5  C 645 822.18  643.68 823.5  642 823.5  " fill-rule="nonzero" fill="#797979" stroke="none" />
</svg>