<?xml version="1.0" encoding="utf-8"?>
<svg version="1.1" xmlns:xlink="http://www.w3.org/1999/xlink" width="80px" height="30px" xmlns="http://www.w3.org/2000/svg">
  <defs>
    <mask fill="white" id="clip6">
      <path d="M 0 27  L 0 15.3999999999978  L 0 3  C 0 1.32000000000005  1.32000000000005 0  3 0  L 13.2000000000007 0  L 19.6000000000022 0  L 77 0  C 78.6800000000001 0  80 1.32000000000005  80 3  L 80 27  C 80 28.68  78.6800000000001 30  77 30  L 14.8000000000029 30  L 3 30  C 1.32000000000005 30  0 28.68  0 27  Z " fill-rule="evenodd" />
    </mask>
  </defs>
  <g transform="matrix(1 0 0 1 -660 -627 )">
    <path d="M 0 27  L 0 15.3999999999978  L 0 3  C 0 1.32000000000005  1.32000000000005 0  3 0  L 13.2000000000007 0  L 19.6000000000022 0  L 77 0  C 78.6800000000001 0  80 1.32000000000005  80 3  L 80 27  C 80 28.68  78.6800000000001 30  77 30  L 14.8000000000029 30  L 3 30  C 1.32000000000005 30  0 28.68  0 27  Z " fill-rule="nonzero" fill="#f59a23" stroke="none" transform="matrix(1 0 0 1 660 627 )" />
    <path d="M 0 27  L 0 15.3999999999978  L 0 3  C 0 1.32000000000005  1.32000000000005 0  3 0  L 13.2000000000007 0  L 19.6000000000022 0  L 77 0  C 78.6800000000001 0  80 1.32000000000005  80 3  L 80 27  C 80 28.68  78.6800000000001 30  77 30  L 14.8000000000029 30  L 3 30  C 1.32000000000005 30  0 28.68  0 27  Z " stroke-width="2" stroke="#e4e4e4" fill="none" transform="matrix(1 0 0 1 660 627 )" mask="url(#clip6)" />
  </g>
</svg>