<?xml version="1.0" encoding="utf-8"?>
<svg version="1.1" xmlns:xlink="http://www.w3.org/1999/xlink" width="30px" height="50px" xmlns="http://www.w3.org/2000/svg">
  <g transform="matrix(1 0 0 1 -1219 -78 )">
    <path d="M 17.20703125 47.20703125  C 17.8190104166667 46.5950520833333  18.125 45.859375  18.125 45  C 18.125 44.140625  17.8190104166667 43.4049479166667  17.20703125 42.79296875  C 16.5950520833333 42.1809895833333  15.859375 41.875  15 41.875  C 14.140625 41.875  13.4049479166667 42.1809895833333  12.79296875 42.79296875  C 12.1809895833333 43.4049479166667  11.875 44.140625  11.875 45  C 11.875 45.859375  12.1809895833333 46.5950520833333  12.79296875 47.20703125  C 13.4049479166667 47.8190104166667  14.140625 48.125  15 48.125  C 15.859375 48.125  16.5950520833333 47.8190104166667  17.20703125 47.20703125  Z M 25.87890625 39.62890625  C 26.1263020833333 39.3815104166667  26.25 39.0885416666667  26 38.75  L 26 11.25  C 26.25 10.9114583333333  26.1263020833333 10.6184895833333  25.87890625 10.37109375  C 25.6315104166667 10.1236979166667  25.3385416666667 10  25 10  L 5 10  C 4.66145833333333 10  4.36848958333333 10.1236979166667  4.12109375 10.37109375  C 3.87369791666667 10.6184895833333  3.75 10.9114583333333  4 11.25  L 4 38.75  C 3.75 39.0885416666667  3.87369791666667 39.3815104166667  4.12109375 39.62890625  C 4.36848958333333 39.8763020833333  4.66145833333333 40  5 40  L 25 40  C 25.3385416666667 40  25.6315104166667 39.8763020833333  25.87890625 39.62890625  Z M 18.125 6.25  C 18.5416666666667 6.25  18.75 6.04166666666666  18.75 5.625  C 18.75 5.20833333333333  18.5416666666667 5  18.125 5  L 11.875 5  C 11.4583333333333 5  11.25 5.20833333333333  11.25 5.625  C 11.25 6.04166666666666  11.4583333333333 6.25  11.875 6.25  L 18.125 6.25  Z M 28.515625 1.484375  C 29.5052083333333 2.47395833333333  30 3.64583333333333  30 5  L 30 45  C 30 46.3541666666667  29.5052083333333 47.5260416666667  28.515625 48.515625  C 27.5260416666667 49.5052083333333  26.3541666666667 50  25 50  L 5 50  C 3.64583333333333 50  2.47395833333333 49.5052083333333  1.484375 48.515625  C 0.494791666666667 47.5260416666667  0 46.3541666666667  0 45  L 0 5  C 0 3.64583333333333  0.494791666666667 2.47395833333333  1.484375 1.484375  C 2.47395833333333 0.494791666666661  3.64583333333333 0  5 0  L 25 0  C 26.3541666666667 0  27.5260416666667 0.494791666666661  28.515625 1.484375  Z " fill-rule="nonzero" fill="#facd91" stroke="none" transform="matrix(1 0 0 1 1219 78 )" />
  </g>
</svg>