<?xml version="1.0" encoding="utf-8"?>
<svg version="1.1" xmlns:xlink="http://www.w3.org/1999/xlink" width="46px" height="50px" xmlns="http://www.w3.org/2000/svg">
  <g transform="matrix(1 0 0 1 -1203 -145 )">
    <path d="M 45.1614583333333 0.841346153846156  C 45.7204861111111 1.40224358974358  46 2.08333333333333  46 2.88461538461539  L 46 36.5384615384615  C 46 37.5400641025641  45.6605902777778 38.4314903846154  44.9817708333333 39.2127403846154  C 44.3029513888889 39.9939903846154  43.4444444444445 40.5999599358974  42.40625 41.0306490384615  C 41.3680555555556 41.4613381410256  40.3348524305556 41.7818509615385  39.306640625 41.9921875  C 38.2784288194445 42.2025240384615  37.3151041666667 42.3076923076923  36.4166666666667 42.3076923076923  C 35.5182291666667 42.3076923076923  34.5549045138889 42.2025240384615  33.5266927083333 41.9921875  C 32.4984809027778 41.7818509615385  31.4652777777778 41.4613381410256  30.4270833333333 41.0306490384615  C 29.3888888888889 40.5999599358974  28.5303819444445 39.9939903846154  27.8515625 39.2127403846154  C 27.1727430555556 38.4314903846154  26.8333333333333 37.5400641025641  26.8333333333333 36.5384615384615  C 26.8333333333333 35.536858974359  27.1727430555556 34.6454326923077  27.8515625 33.8641826923077  C 28.5303819444445 33.0829326923077  29.3888888888889 32.4769631410256  30.4270833333333 32.0462740384615  C 31.4652777777778 31.6155849358974  32.4984809027778 31.2950721153846  33.5266927083333 31.0847355769231  C 34.5549045138889 30.8743990384615  35.5182291666667 30.7692307692308  36.4166666666667 30.7692307692308  C 38.5130208333333 30.7692307692308  40.4296875 31.1598557692308  42 31.9411057692308  L 42 15.8052884615385  L 20 22.9266826923077  L 20 44.2307692307692  C 19.1666666666667 45.2323717948718  18.8272569444444 46.1237980769231  18.1484375 46.9050480769231  C 17.4696180555556 47.6862980769231  16.6111111111111 48.2922676282051  15.5729166666667 48.7229567307692  C 14.5347222222222 49.1536458333333  13.5015190972222 49.4741586538462  12.4733072916667 49.6844951923077  C 11.4450954861111 49.8948317307692  10.4817708333333 50  9.58333333333333 50  C 8.68489583333333 50  7.72157118055556 49.8948317307692  6.693359375 49.6844951923077  C 5.66514756944445 49.4741586538462  4.63194444444445 49.1536458333333  3.59375 48.7229567307692  C 2.55555555555556 48.2922676282051  1.69704861111111 47.6862980769231  1.01822916666667 46.9050480769231  C 0.339409722222222 46.1237980769231  0 45.2323717948718  0 44.2307692307692  C 0 43.2291666666667  0.339409722222222 42.3377403846154  1.01822916666667 41.5564903846154  C 1.69704861111111 40.7752403846154  2.55555555555556 40.1692708333333  3.59375 39.7385817307692  C 4.63194444444445 39.3078926282051  5.66514756944445 38.9873798076923  6.693359375 38.7770432692308  C 7.72157118055556 38.5667067307692  8.68489583333333 38.4615384615385  9.58333333333333 38.4615384615385  C 11.6796875 38.4615384615385  13.5963541666667 38.8521634615385  16 39.6334134615385  L 16 10.5769230769231  C 15.3333333333333 9.95592948717948  15.5230034722222 9.39002403846154  15.90234375 8.87920673076923  C 16.2816840277778 8.36838942307692  16.7708333333333 8.01282051282051  17.3697916666667 7.8125  L 42.2864583333333 0.120192307692307  C 42.5260416666667 0.0400641025641024  42.8055555555556 0  43.125 0  C 43.9236111111111 0  44.6024305555556 0.280448717948717  45.1614583333333 0.841346153846156  Z " fill-rule="nonzero" fill="#facd91" stroke="none" transform="matrix(1 0 0 1 1203 145 )" />
  </g>
</svg>