<?xml version="1.0" encoding="utf-8"?>
<svg version="1.1" xmlns:xlink="http://www.w3.org/1999/xlink" width="26px" height="31px" xmlns="http://www.w3.org/2000/svg">
  <g transform="matrix(1 0 0 1 -1049 -11 )">
    <path d="M 21.6666666666667 8.85714285714286  C 21.6666666666667 10.5524553571429  21.2209201388889 12.1209077380952  20.3294270833333 13.5625  C 20.8598090277778 13.7239583333333  21.3648003472222 13.9430803571429  21.8444010416667 14.2198660714286  C 22.3240017361111 14.4966517857143  22.826171875 14.9175967261905  23.3509114583333 15.4827008928571  C 23.8756510416667 16.0478050595238  24.32421875 16.7138206845238  24.6966145833333 17.4807477678571  C 25.0690104166667 18.2476748511905  25.3793402777778 19.2394903273809  25.6276041666667 20.4561941964286  C 25.8758680555556 21.6728980654762  26 23.0366443452381  26 24.5474330357143  C 26 26.323474702381  25.4357638888889 27.8429129464286  24.3072916666667 29.1057477678571  C 23.1788194444444 30.3685825892857  21.8190104166667 31  20.2278645833333 31  L 5.77213541666667 31  C 4.18098958333333 31  2.82118055555556 30.3685825892857  1.69270833333333 29.1057477678571  C 0.564236111111111 27.8429129464286  0 26.323474702381  0 24.5474330357143  C 0 23.0366443452381  0.124131944444444 21.6728980654762  0.372395833333333 20.4561941964286  C 0.620659722222222 19.2394903273809  0.930989583333333 18.2476748511905  1.30338541666667 17.4807477678571  C 1.67578125 16.7138206845238  2.12434895833333 16.0478050595238  2.64908854166667 15.4827008928571  C 3.173828125 14.9175967261905  3.67599826388889 14.4966517857143  4.15559895833333 14.2198660714286  C 4.63519965277778 13.9430803571429  5.14019097222222 13.7239583333333  5.67057291666667 13.5625  C 4.77907986111111 12.1209077380952  4.33333333333333 10.5524553571429  4.33333333333333 8.85714285714286  C 4.33333333333333 7.65773809523809  4.56184895833333 6.51311383928571  5.01888020833333 5.42327008928571  C 5.47591145833333 4.33342633928571  6.09375 3.390625  6.87239583333333 2.59486607142857  C 7.65104166666667 1.79910714285714  8.57356770833333 1.16768973214286  9.63997395833333 0.700613839285713  C 10.7063802083333 0.23353794642857  11.8263888888889 0  13 0  C 14.1736111111111 0  15.2936197916667 0.23353794642857  16.3600260416667 0.700613839285713  C 17.4264322916667 1.16768973214286  18.3489583333333 1.79910714285714  19.1276041666667 2.59486607142857  C 19.90625 3.390625  20.5240885416667 4.33342633928571  20.9811197916667 5.42327008928571  C 21.4381510416667 6.51311383928571  21.6666666666667 7.65773809523809  21.6666666666667 8.85714285714286  Z M 17.595703125 4.16043526785714  C 16.326171875 2.86300223214286  14.7942708333333 2.21428571428571  13 2.21428571428571  C 11.2057291666667 2.21428571428571  9.673828125 2.86300223214286  8.404296875 4.16043526785714  C 7.134765625 5.45786830357143  6.5 7.0234375  6.5 8.85714285714286  C 6.5 10.6908482142857  7.134765625 12.2564174107143  8.404296875 13.5538504464286  C 9.673828125 14.8512834821429  11.2057291666667 15.5  13 15.5  C 14.7942708333333 15.5  16.326171875 14.8512834821429  17.595703125 13.5538504464286  C 18.865234375 12.2564174107143  19.5 10.6908482142857  19.5 8.85714285714286  C 19.5 7.0234375  18.865234375 5.45786830357143  17.595703125 4.16043526785714  Z M 5.77213541666667 28.7857142857143  L 20.2278645833333 28.7857142857143  C 21.2209201388889 28.7857142857143  22.0700954861111 28.3734188988095  22.775390625 27.548828125  C 23.4806857638889 26.7242373511905  23.8333333333333 25.7237723214286  23.8333333333333 24.5474330357143  C 23.8333333333333 21.7911086309524  23.3904079861111 19.6171875  22.5045572916667 18.0256696428571  C 21.6187065972222 16.4341517857143  20.3463541666667 15.5980282738095  18.6875 15.5172991071429  C 17.0512152777778 16.9819568452381  15.1553819444444 17.7142857142857  13 17.7142857142857  C 10.8446180555556 17.7142857142857  8.94878472222222 16.9819568452381  7.3125 15.5172991071429  C 5.65364583333333 15.5980282738095  4.38129340277778 16.4341517857143  3.49544270833333 18.0256696428571  C 2.60959201388889 19.6171875  2.16666666666667 21.7911086309524  2.16666666666667 24.5474330357143  C 2.16666666666667 25.7237723214286  2.51931423611111 26.7242373511905  3.224609375 27.548828125  C 3.92990451388889 28.3734188988095  4.77907986111111 28.7857142857143  5.77213541666667 28.7857142857143  Z " fill-rule="nonzero" fill="#b8741a" stroke="none" transform="matrix(1 0 0 1 1049 11 )" />
  </g>
</svg>